REM DIRINDEX 1\8,1\2\11,1\3\12,1\3\14,1\5\15,1\5\16,1\6\17,1\6\18,1\4\19,1\4\20,1\4\21,1\4\22,1\7\23,1\7\24,1\7\25,1\2\9\26,1\2\9\27,1\2\10\28,1\2\10\29,1\2\10\30,1\2\10\31,1\2\10\32,1\3\13\33,1\3\13\34,1\3\13\35
REM DIRNAME folder01,folder02,folder03,folder04,folder05,folder06,folder07,folder08,folder09,folder10,folder11,folder12,folder13,folder14,folder15,folder16,folder17,folder18,folder19,folder20,folder21,folder22,folder23,folder24,folder25,folder26,folder27,folder28,folder29,folder30,folder31,folder32,folder33,folder34,folder35
TITLE ""
FILE "61 061_UNIT6_SET2.mp3" MP3
  TRACK 01 AUDIO
    TITLE "11:cjc123_6185"
    INDEX 01 00:00:00
  TRACK 02 AUDIO
    TITLE "0:"
    INDEX 01 00:02:49
  TRACK 03 AUDIO
    TITLE "28:cjc123_6186"
    INDEX 01 00:03:31
  TRACK 04 AUDIO
    TITLE "0:"
    INDEX 01 00:04:42
  TRACK 05 AUDIO
    TITLE "29:cjc123_6187"
    INDEX 01 00:04:52
  TRACK 06 AUDIO
    TITLE "0:"
    INDEX 01 00:05:48
  TRACK 07 AUDIO
    TITLE "30:cjc123_6188"
    INDEX 01 00:05:59
  TRACK 08 AUDIO
    TITLE "0:"
    INDEX 01 00:07:00
  TRACK 09 AUDIO
    TITLE "31:cjc123_6189"
    INDEX 01 00:07:43
  TRACK 10 AUDIO
    TITLE "0:"
    INDEX 01 00:13:47
  TRACK 11 AUDIO
    TITLE "32:cjc123_6190"
    INDEX 01 00:14:19
  TRACK 12 AUDIO
    TITLE "0:"
    INDEX 01 00:19:40
  TRACK 13 AUDIO
    TITLE "28:cjc123_6191"
    INDEX 01 00:19:63
  TRACK 14 AUDIO
    TITLE "0:"
    INDEX 01 00:20:67
  TRACK 15 AUDIO
    TITLE "29:cjc123_6192"
    INDEX 01 00:21:11
  TRACK 16 AUDIO
    TITLE "0:"
    INDEX 01 00:22:17
  TRACK 17 AUDIO
    TITLE "30:cjc123_6193"
    INDEX 01 00:22:25
  TRACK 18 AUDIO
    TITLE "0:"
    INDEX 01 00:23:22
  TRACK 19 AUDIO
    TITLE "31:cjc123_6194"
    INDEX 01 00:24:04
  TRACK 20 AUDIO
    TITLE "0:"
    INDEX 01 00:28:00
  TRACK 21 AUDIO
    TITLE "32:cjc123_6195"
    INDEX 01 00:28:43
  TRACK 22 AUDIO
    TITLE "0:"
    INDEX 01 00:33:58
  TRACK 23 AUDIO
    TITLE "28:cjc123_6196"
    INDEX 01 00:34:28
  TRACK 24 AUDIO
    TITLE "0:"
    INDEX 01 00:35:35
  TRACK 25 AUDIO
    TITLE "29:cjc123_6197"
    INDEX 01 00:35:45
  TRACK 26 AUDIO
    TITLE "0:"
    INDEX 01 00:36:46
  TRACK 27 AUDIO
    TITLE "30:cjc123_6198"
    INDEX 01 00:36:54
  TRACK 28 AUDIO
    TITLE "0:"
    INDEX 01 00:37:50
  TRACK 29 AUDIO
    TITLE "31:cjc123_6199"
    INDEX 01 00:38:24
  TRACK 30 AUDIO
    TITLE "0:"
    INDEX 01 00:43:33
  TRACK 31 AUDIO
    TITLE "32:cjc123_6200"
    INDEX 01 00:43:70
  TRACK 32 AUDIO
    TITLE "0:"
    INDEX 01 00:49:31
  TRACK 33 AUDIO
    TITLE "28:cjc123_6201"
    INDEX 01 00:50:03
  TRACK 34 AUDIO
    TITLE "0:"
    INDEX 01 00:51:24
  TRACK 35 AUDIO
    TITLE "29:cjc123_6202"
    INDEX 01 00:51:44
  TRACK 36 AUDIO
    TITLE "0:"
    INDEX 01 00:52:53
  TRACK 37 AUDIO
    TITLE "30:cjc123_6203"
    INDEX 01 00:52:63
  TRACK 38 AUDIO
    TITLE "0:"
    INDEX 01 00:54:11
  TRACK 39 AUDIO
    TITLE "31:cjc123_6204"
    INDEX 01 00:54:60
  TRACK 40 AUDIO
    TITLE "0:"
    INDEX 01 00:58:48
  TRACK 41 AUDIO
    TITLE "32:cjc123_6205"
    INDEX 01 00:59:02
  TRACK 42 AUDIO
    TITLE "0:"
    INDEX 01 01:02:18
  TRACK 43 AUDIO
    TITLE "28:cjc123_6206"
    INDEX 01 01:02:61
  TRACK 44 AUDIO
    TITLE "0:"
    INDEX 01 01:03:57
  TRACK 45 AUDIO
    TITLE "29:cjc123_6207"
    INDEX 01 01:04:03
  TRACK 46 AUDIO
    TITLE "0:"
    INDEX 01 01:05:03
  TRACK 47 AUDIO
    TITLE "30:cjc123_6208"
    INDEX 01 01:05:17
  TRACK 48 AUDIO
    TITLE "0:"
    INDEX 01 01:06:12
  TRACK 49 AUDIO
    TITLE "31:cjc123_6209"
    INDEX 01 01:06:63
  TRACK 50 AUDIO
    TITLE "0:"
    INDEX 01 01:12:15
  TRACK 51 AUDIO
    TITLE "32:cjc123_6210"
    INDEX 01 01:12:46
  TRACK 52 AUDIO
    TITLE "0:"
    INDEX 01 01:18:17
  TRACK 53 AUDIO
    TITLE "28:cjc123_6211"
    INDEX 01 01:18:60
  TRACK 54 AUDIO
    TITLE "0:"
    INDEX 01 01:19:66
  TRACK 55 AUDIO
    TITLE "29:cjc123_6212"
    INDEX 01 01:20:14
  TRACK 56 AUDIO
    TITLE "0:"
    INDEX 01 01:21:35
  TRACK 57 AUDIO
    TITLE "30:cjc123_6213"
    INDEX 01 01:21:47
  TRACK 58 AUDIO
    TITLE "0:"
    INDEX 01 01:22:62
  TRACK 59 AUDIO
    TITLE "31:cjc123_6214"
    INDEX 01 01:23:34
  TRACK 60 AUDIO
    TITLE "0:"
    INDEX 01 01:28:08
  TRACK 61 AUDIO
    TITLE "32:cjc123_6215"
    INDEX 01 01:28:45
  TRACK 62 AUDIO
    TITLE "0:"
    INDEX 01 01:33:15
  TRACK 63 AUDIO
    TITLE "28:cjc123_6216"
    INDEX 01 01:33:58
  TRACK 64 AUDIO
    TITLE "0:"
    INDEX 01 01:34:67
  TRACK 65 AUDIO
    TITLE "29:cjc123_6217"
    INDEX 01 01:35:00
  TRACK 66 AUDIO
    TITLE "0:"
    INDEX 01 01:35:73
  TRACK 67 AUDIO
    TITLE "30:cjc123_6218"
    INDEX 01 01:36:13
  TRACK 68 AUDIO
    TITLE "0:"
    INDEX 01 01:37:15
  TRACK 69 AUDIO
    TITLE "31:cjc123_6219"
    INDEX 01 01:37:64
  TRACK 70 AUDIO
    TITLE "0:"
    INDEX 01 01:43:45
  TRACK 71 AUDIO
    TITLE "32:cjc123_6220"
    INDEX 01 01:44:15
  TRACK 72 AUDIO
    TITLE "0:"
    INDEX 01 01:49:63
  TRACK 73 AUDIO
    TITLE "28:cjc123_6221"
    INDEX 01 01:50:33
  TRACK 74 AUDIO
    TITLE "0:"
    INDEX 01 01:51:52
  TRACK 75 AUDIO
    TITLE "29:cjc123_6222"
    INDEX 01 01:51:72
  TRACK 76 AUDIO
    TITLE "0:"
    INDEX 01 01:52:61
  TRACK 77 AUDIO
    TITLE "30:cjc123_6223"
    INDEX 01 01:52:71
  TRACK 78 AUDIO
    TITLE "0:"
    INDEX 01 01:54:05
  TRACK 79 AUDIO
    TITLE "31:cjc123_6224"
    INDEX 01 01:54:58
  TRACK 80 AUDIO
    TITLE "0:"
    INDEX 01 01:58:44
  TRACK 81 AUDIO
    TITLE "32:cjc123_6225"
    INDEX 01 01:59:26
  TRACK 82 AUDIO
    TITLE "0:"
    INDEX 01 02:04:17
  TRACK 83 AUDIO
    TITLE "28:cjc123_6226"
    INDEX 01 02:04:43
  TRACK 84 AUDIO
    TITLE "0:"
    INDEX 01 02:05:54
  TRACK 85 AUDIO
    TITLE "29:cjc123_6227"
    INDEX 01 02:05:72
  TRACK 86 AUDIO
    TITLE "0:"
    INDEX 01 02:06:67
  TRACK 87 AUDIO
    TITLE "30:cjc123_6228"
    INDEX 01 02:07:10
  TRACK 88 AUDIO
    TITLE "0:"
    INDEX 01 02:08:17
  TRACK 89 AUDIO
    TITLE "31:cjc123_6229"
    INDEX 01 02:08:66
  TRACK 90 AUDIO
    TITLE "0:"
    INDEX 01 02:13:59
  TRACK 91 AUDIO
    TITLE "32:cjc123_6230"
    INDEX 01 02:14:16
  TRACK 92 AUDIO
    TITLE "0:"
    INDEX 01 02:19:23
  TRACK 93 AUDIO
    TITLE "28:cjc123_6231"
    INDEX 01 02:19:68
  TRACK 94 AUDIO
    TITLE "0:"
    INDEX 01 02:21:10
  TRACK 95 AUDIO
    TITLE "29:cjc123_6232"
    INDEX 01 02:21:24
  TRACK 96 AUDIO
    TITLE "0:"
    INDEX 01 02:22:31
  TRACK 97 AUDIO
    TITLE "30:cjc123_6233"
    INDEX 01 02:22:37
  TRACK 98 AUDIO
    TITLE "0:"
    INDEX 01 02:23:50
  TRACK 99 AUDIO
    TITLE "31:cjc123_6234"
    INDEX 01 02:24:24
  TRACK 100 AUDIO
    TITLE "0:"
    INDEX 01 02:29:25
  TRACK 101 AUDIO
    TITLE "32:cjc123_6235"
    INDEX 01 02:29:68
  TRACK 102 AUDIO
    TITLE "0:"
    INDEX 01 02:34:66
  TRACK 103 AUDIO
    TITLE "28:cjc123_6236"
    INDEX 01 02:35:36
  TRACK 104 AUDIO
    TITLE "0:"
    INDEX 01 02:36:51
  TRACK 105 AUDIO
    TITLE "29:cjc123_6237"
    INDEX 01 02:36:68
  TRACK 106 AUDIO
    TITLE "0:"
    INDEX 01 02:38:20
  TRACK 107 AUDIO
    TITLE "30:cjc123_6238"
    INDEX 01 02:38:38
  TRACK 108 AUDIO
    TITLE "0:"
    INDEX 01 02:39:49
  TRACK 109 AUDIO
    TITLE "31:cjc123_6239"
    INDEX 01 02:40:41
  TRACK 110 AUDIO
    TITLE "0:"
    INDEX 01 02:44:15
  TRACK 111 AUDIO
    TITLE "32:cjc123_6240"
    INDEX 01 02:44:44
  TRACK 112 AUDIO
    TITLE "0:"
    INDEX 01 02:48:13
  TRACK 113 AUDIO
    TITLE "28:cjc123_6241"
    INDEX 01 02:48:42
  TRACK 114 AUDIO
    TITLE "0:"
    INDEX 01 02:49:45
  TRACK 115 AUDIO
    TITLE "29:cjc123_6242"
    INDEX 01 02:49:57
  TRACK 116 AUDIO
    TITLE "0:"
    INDEX 01 02:51:27
  TRACK 117 AUDIO
    TITLE "30:cjc123_6243"
    INDEX 01 02:51:33
  TRACK 118 AUDIO
    TITLE "0:"
    INDEX 01 02:52:46
  TRACK 119 AUDIO
    TITLE "31:cjc123_6244"
    INDEX 01 02:53:18
  TRACK 120 AUDIO
    TITLE "0:"
    INDEX 01 02:58:01
  TRACK 121 AUDIO
    TITLE "32:cjc123_6245"
    INDEX 01 02:58:31
  TRACK 122 AUDIO
    TITLE "0:"
    INDEX 01 03:02:50
  TRACK 123 AUDIO
    TITLE "28:cjc123_6246"
    INDEX 01 03:03:16
  TRACK 124 AUDIO
    TITLE "0:"
    INDEX 01 03:04:27
  TRACK 125 AUDIO
    TITLE "29:cjc123_6247"
    INDEX 01 03:04:39
  TRACK 126 AUDIO
    TITLE "0:"
    INDEX 01 03:05:31
  TRACK 127 AUDIO
    TITLE "30:cjc123_6248"
    INDEX 01 03:05:43
  TRACK 128 AUDIO
    TITLE "0:"
    INDEX 01 03:06:44
  TRACK 129 AUDIO
    TITLE "31:cjc123_6249"
    INDEX 01 03:07:20
  TRACK 130 AUDIO
    TITLE "0:"
    INDEX 01 03:11:16
  TRACK 131 AUDIO
    TITLE "32:cjc123_6250"
    INDEX 01 03:11:65
  TRACK 132 AUDIO
    TITLE "0:"
    INDEX 01 03:16:03
  TRACK 133 AUDIO
    TITLE "28:cjc123_6251"
    INDEX 01 03:16:50
  TRACK 134 AUDIO
    TITLE "0:"
    INDEX 01 03:17:46
  TRACK 135 AUDIO
    TITLE "29:cjc123_6252"
    INDEX 01 03:17:73
  TRACK 136 AUDIO
    TITLE "0:"
    INDEX 01 03:19:11
  TRACK 137 AUDIO
    TITLE "30:cjc123_6253"
    INDEX 01 03:19:19
  TRACK 138 AUDIO
    TITLE "0:"
    INDEX 01 03:20:28
  TRACK 139 AUDIO
    TITLE "31:cjc123_6254"
    INDEX 01 03:20:72
  TRACK 140 AUDIO
    TITLE "0:"
    INDEX 01 03:24:61
  TRACK 141 AUDIO
    TITLE "32:cjc123_6255"
    INDEX 01 03:25:35
  TRACK 142 AUDIO
    TITLE "0:"
    INDEX 01 03:29:61
  TRACK 143 AUDIO
    TITLE "28:cjc123_6256"
    INDEX 01 03:30:33
  TRACK 144 AUDIO
    TITLE "0:"
    INDEX 01 03:31:52
  TRACK 145 AUDIO
    TITLE "29:cjc123_6257"
    INDEX 01 03:31:71
  TRACK 146 AUDIO
    TITLE "0:"
    INDEX 01 03:33:09
  TRACK 147 AUDIO
    TITLE "30:cjc123_6258"
    INDEX 01 03:33:21
  TRACK 148 AUDIO
    TITLE "0:"
    INDEX 01 03:34:50
  TRACK 149 AUDIO
    TITLE "31:cjc123_6259"
    INDEX 01 03:35:22
  TRACK 150 AUDIO
    TITLE "0:"
    INDEX 01 03:39:59
  TRACK 151 AUDIO
    TITLE "32:cjc123_6260"
    INDEX 01 03:40:17
  TRACK 152 AUDIO
    TITLE "0:"
    INDEX 01 03:44:21
